<svg xmlns="http://www.w3.org/2000/svg" xmlns:xlink="http://www.w3.org/1999/xlink" xmlns:fi="http://pattern.flaticon.com/" x="0" y="0" width="2600" height="1300" viewBox="0 0 2600 1300"><rect x="0px" y="0px" width="100%" height="100%" opacity="1" fill="#f5f5f5"/><defs><g transform="matrix(0.1171875 0 0 0.1171875 198 10)" id="L1_41"><path d="M230.5,181c-41.355,0-75,33.645-75,75c0,41.355,33.645,75,75,75c41.355,0,75-33.645,75-75S271.855,181,230.5,181z     M230.5,301c-24.813,0-45-20.187-45-45s20.187-45,45-45s45,20.187,45,45S255.313,301,230.5,301z" fill="#e0e0e0"/><path d="M375.5,0c-33.084,0-60,26.916-60,60s26.916,60,60,60c33.084,0,60-26.916,60-60S408.584,0,375.5,0z M375.5,90    c-16.542,0-30-13.458-30-30s13.458-30,30-30s30,13.458,30,30S392.042,90,375.5,90z" fill="#e0e0e0"/><path d="M105.5,0c-44.112,0-80,35.888-80,80s35.888,80,80,80s80-35.888,80-80S149.612,0,105.5,0z M105.5,130    c-27.57,0-50-22.43-50-50s22.43-50,50-50s50,22.43,50,50S133.07,130,105.5,130z" fill="#e0e0e0"/><path d="M406.5,301c-44.112,0-80,35.888-80,80s35.888,80,80,80s80-35.888,80-80S450.612,301,406.5,301z M406.5,431    c-27.57,0-50-22.43-50-50s22.43-50,50-50s50,22.43,50,50S434.07,431,406.5,431z" fill="#e0e0e0"/><path d="M85.5,392c-33.084,0-60,26.916-60,60s26.916,60,60,60s60-26.916,60-60S118.584,392,85.5,392z M85.5,482    c-16.542,0-30-13.458-30-30s13.458-30,30-30s30,13.458,30,30S102.042,482,85.5,482z" fill="#e0e0e0"/></g><g transform="matrix(0.1171875 0 0 0.1171875 73 167)" id="L1_42"><path d="M230.5,181c-41.355,0-75,33.645-75,75c0,41.355,33.645,75,75,75c41.355,0,75-33.645,75-75S271.855,181,230.5,181z     M230.5,301c-24.813,0-45-20.187-45-45s20.187-45,45-45s45,20.187,45,45S255.313,301,230.5,301z" fill="#e0e0e0"/><path d="M375.5,0c-33.084,0-60,26.916-60,60s26.916,60,60,60c33.084,0,60-26.916,60-60S408.584,0,375.5,0z M375.5,90    c-16.542,0-30-13.458-30-30s13.458-30,30-30s30,13.458,30,30S392.042,90,375.5,90z" fill="#e0e0e0"/><path d="M105.5,0c-44.112,0-80,35.888-80,80s35.888,80,80,80s80-35.888,80-80S149.612,0,105.5,0z M105.5,130    c-27.57,0-50-22.43-50-50s22.43-50,50-50s50,22.43,50,50S133.07,130,105.5,130z" fill="#e0e0e0"/><path d="M406.5,301c-44.112,0-80,35.888-80,80s35.888,80,80,80s80-35.888,80-80S450.612,301,406.5,301z M406.5,431    c-27.57,0-50-22.43-50-50s22.43-50,50-50s50,22.43,50,50S434.07,431,406.5,431z" fill="#e0e0e0"/><path d="M85.5,392c-33.084,0-60,26.916-60,60s26.916,60,60,60s60-26.916,60-60S118.584,392,85.5,392z M85.5,482    c-16.542,0-30-13.458-30-30s13.458-30,30-30s30,13.458,30,30S102.042,482,85.5,482z" fill="#e0e0e0"/></g><g transform="matrix(0.1171875 0 0 0.1171875 206 226)" id="L1_43"><path d="M230.5,181c-41.355,0-75,33.645-75,75c0,41.355,33.645,75,75,75c41.355,0,75-33.645,75-75S271.855,181,230.5,181z     M230.5,301c-24.813,0-45-20.187-45-45s20.187-45,45-45s45,20.187,45,45S255.313,301,230.5,301z" fill="#e0e0e0"/><path d="M375.5,0c-33.084,0-60,26.916-60,60s26.916,60,60,60c33.084,0,60-26.916,60-60S408.584,0,375.5,0z M375.5,90    c-16.542,0-30-13.458-30-30s13.458-30,30-30s30,13.458,30,30S392.042,90,375.5,90z" fill="#e0e0e0"/><path d="M105.5,0c-44.112,0-80,35.888-80,80s35.888,80,80,80s80-35.888,80-80S149.612,0,105.5,0z M105.5,130    c-27.57,0-50-22.43-50-50s22.43-50,50-50s50,22.43,50,50S133.07,130,105.5,130z" fill="#e0e0e0"/><path d="M406.5,301c-44.112,0-80,35.888-80,80s35.888,80,80,80s80-35.888,80-80S450.612,301,406.5,301z M406.5,431    c-27.57,0-50-22.43-50-50s22.43-50,50-50s50,22.43,50,50S434.07,431,406.5,431z" fill="#e0e0e0"/><path d="M85.5,392c-33.084,0-60,26.916-60,60s26.916,60,60,60s60-26.916,60-60S118.584,392,85.5,392z M85.5,482    c-16.542,0-30-13.458-30-30s13.458-30,30-30s30,13.458,30,30S102.042,482,85.5,482z" fill="#e0e0e0"/></g></defs><g fi:class="KUsePattern"><pattern id="pattern_L1_41" width="350" height="350" patternUnits="userSpaceOnUse"><use xlink:href="#L1_41" x="-350" y="-350"/><use xlink:href="#L1_41" x="0" y="-350"/><use xlink:href="#L1_41" x="350" y="-350"/><use xlink:href="#L1_41" x="-350" y="0"/><use xlink:href="#L1_41" x="0" y="0"/><use xlink:href="#L1_41" x="350" y="0"/><use xlink:href="#L1_41" x="-350" y="350"/><use xlink:href="#L1_41" x="0" y="350"/><use xlink:href="#L1_41" x="350" y="350"/></pattern><rect x="0" y="0" width="100%" height="100%" fill="url(#pattern_L1_41)"/></g><g fi:class="KUsePattern"><pattern id="pattern_L1_42" width="350" height="350" patternUnits="userSpaceOnUse"><use xlink:href="#L1_42" x="-350" y="-350"/><use xlink:href="#L1_42" x="0" y="-350"/><use xlink:href="#L1_42" x="350" y="-350"/><use xlink:href="#L1_42" x="-350" y="0"/><use xlink:href="#L1_42" x="0" y="0"/><use xlink:href="#L1_42" x="350" y="0"/><use xlink:href="#L1_42" x="-350" y="350"/><use xlink:href="#L1_42" x="0" y="350"/><use xlink:href="#L1_42" x="350" y="350"/></pattern><rect x="0" y="0" width="100%" height="100%" fill="url(#pattern_L1_42)"/></g><g fi:class="KUsePattern"><pattern id="pattern_L1_43" width="350" height="350" patternUnits="userSpaceOnUse"><use xlink:href="#L1_43" x="-350" y="-350"/><use xlink:href="#L1_43" x="0" y="-350"/><use xlink:href="#L1_43" x="350" y="-350"/><use xlink:href="#L1_43" x="-350" y="0"/><use xlink:href="#L1_43" x="0" y="0"/><use xlink:href="#L1_43" x="350" y="0"/><use xlink:href="#L1_43" x="-350" y="350"/><use xlink:href="#L1_43" x="0" y="350"/><use xlink:href="#L1_43" x="350" y="350"/></pattern><rect x="0" y="0" width="100%" height="100%" fill="url(#pattern_L1_43)"/></g></svg>