<svg version="1.2" baseProfile="tiny-ps" xmlns="http://www.w3.org/2000/svg" viewBox="0 0 1080 320" width="131" height="39">
	<title>artwork</title>
	<defs>
		<linearGradient id="grd1" gradientUnits="userSpaceOnUse"  x1="112.94" y1="8.219" x2="-21.32" y2="142.479">
			<stop offset="0" stop-color="#43a0d8"  />
			<stop offset="0.007" stop-color="#43a1d8"  />
			<stop offset="0.26" stop-color="#4bc6ef"  />
			<stop offset="0.512" stop-color="#4fd2f5"  />
			<stop offset="0.76" stop-color="#5ad3ee"  />
			<stop offset="1" stop-color="#5ed4ed"  />
		</linearGradient>
		<linearGradient id="grd2" gradientUnits="userSpaceOnUse"  x1="267.762" y1="109.795" x2="80.632" y2="109.795">
			<stop offset="0" stop-color="#ffdc3b"  />
			<stop offset="0.409" stop-color="#ffb931"  />
			<stop offset="0.775" stop-color="#ffa12b"  />
			<stop offset="1" stop-color="#ff9829"  />
		</linearGradient>
		<linearGradient id="grd3" gradientUnits="userSpaceOnUse"  x1="169.353" y1="150.274" x2="-10.605" y2="330.232">
			<stop offset="0" stop-color="#ff4241"  />
			<stop offset="1" stop-color="#cf2b64"  />
		</linearGradient>
		<linearGradient id="grd4" gradientUnits="userSpaceOnUse"  x1="30.64" y1="31.128" x2="110.999" y2="111.487">
			<stop offset="0" stop-color="#38a872"  />
			<stop offset="0.069" stop-color="#38ae72"  />
			<stop offset="0.476" stop-color="#4cbf73"  />
			<stop offset="0.801" stop-color="#5ac26d"  />
			<stop offset="1" stop-color="#61c36c"  />
		</linearGradient>
	</defs>
	<style>
		tspan { white-space:pre }
		.shp0 { opacity: 0;fill: #ffffff } 
		.shp1 { fill: #000000 } 
		.shp2 { fill: #a6a6a6 } 
		.shp3 { fill: #ffffff;stroke: #ffffff;stroke-width: 1.6 } 
		.shp4 { fill: #ffffff } 
		.shp5 { fill: url(#grd1) } 
		.shp6 { fill: url(#grd2) } 
		.shp7 { fill: url(#grd3) } 
		.shp8 { fill: url(#grd4) } 
		.shp9 { opacity: 0.2;fill: #000000 } 
		.shp10 { opacity: 0.122;fill: #000000 } 
		.shp11 { opacity: 0.251;fill: #ffffff } 
	</style>
	<g id="artwork">
		<g id="&lt;Group&gt;">
			<g id="&lt;Group&gt;">
				<path id="&lt;Path&gt;" class="shp0" d="M1160 400L-80 400L-80 -80L1160 -80L1160 400Z" />
			</g>
			<g id="&lt;Group&gt;">
				<path id="&lt;Path&gt;" class="shp1" d="M1040 320L40 320C18 320 0 302 0 280L0 40C0 18 18 0 40 0L1040 0C1062 0 1080 18 1080 40L1080 280C1080 302 1062 320 1040 320Z" />
			</g>
			<g id="&lt;Group&gt;">
				<g id="&lt;Group&gt;">
					<path id="&lt;Compound Path&gt;" fill-rule="evenodd" class="shp2" d="M1080 40L1080 280C1080 302 1062 320 1040 320L40 320C18 320 0 302 0 280L0 40C0 18 18 0 40 0L1040 0C1062 0 1080 18 1080 40ZM40 6.4C21.47 6.4 6.4 21.47 6.4 40L6.4 280C6.4 298.53 21.47 313.6 40 313.6L1040 313.6C1058.53 313.6 1073.6 298.53 1073.6 280L1073.6 40C1073.6 21.47 1058.53 6.4 1040 6.4L40 6.4Z" />
				</g>
			</g>
			<g id="&lt;Group&gt;">
				<path id="&lt;Compound Path&gt;" class="shp3" d="M379.35 81.95C379.35 88.65 377.36 93.99 373.39 97.97C368.87 102.7 362.99 105.07 355.75 105.07C348.82 105.07 342.93 102.67 338.09 97.87C333.24 93.06 330.82 87.11 330.82 80C330.82 72.89 333.24 66.94 338.09 62.13C342.93 57.33 348.82 54.93 355.75 54.93C359.19 54.93 362.48 55.6 365.61 56.94C368.73 58.28 371.24 60.07 373.11 62.3L368.89 66.52C365.72 62.73 361.34 60.83 355.75 60.83C350.7 60.83 346.33 62.6 342.64 66.16C338.96 69.71 337.11 74.32 337.11 80C337.11 85.68 338.96 90.29 342.64 93.84C346.33 97.4 350.7 99.17 355.75 99.17C361.11 99.17 365.58 97.39 369.16 93.81C371.48 91.48 372.82 88.25 373.18 84.09L355.75 84.09L355.75 78.32L379.01 78.32C379.24 79.58 379.35 80.78 379.35 81.95Z" />
				<path id="&lt;Compound Path&gt;" class="shp3" d="M416.22 61.9L394.36 61.9L394.36 77.12L414.07 77.12L414.07 82.88L394.36 82.88L394.36 98.1L416.22 98.1L416.22 104L388.2 104L388.2 56L416.22 56L416.22 61.9Z" />
				<path id="&lt;Compound Path&gt;" class="shp3" d="M442.23 104L436.06 104L436.06 61.9L422.65 61.9L422.65 56L455.64 56L455.64 61.9L442.23 61.9L442.23 104Z" />
				<path id="&lt;Compound Path&gt;" class="shp3" d="M479.5 104L479.5 56L485.67 56L485.67 104L479.5 104Z" />
				<path id="&lt;Compound Path&gt;" class="shp3" d="M513.03 104L506.86 104L506.86 61.9L493.45 61.9L493.45 56L526.43 56L526.43 61.9L513.03 61.9L513.03 104Z" />
				<path id="&lt;Compound Path&gt;" fill-rule="evenodd" class="shp3" d="M588.88 97.8C584.16 102.65 578.29 105.07 571.27 105.07C564.26 105.07 558.39 102.65 553.68 97.8C548.96 92.95 546.61 87.02 546.61 80C546.61 72.98 548.96 67.05 553.68 62.2C558.39 57.35 564.26 54.93 571.27 54.93C578.25 54.93 584.1 57.36 588.84 62.23C593.58 67.11 595.95 73.03 595.95 80C595.95 87.02 593.59 92.95 588.88 97.8ZM558.23 93.78C561.79 97.38 566.13 99.17 571.27 99.17C576.41 99.17 580.77 97.38 584.31 93.78C587.87 90.18 589.65 85.59 589.65 80C589.65 74.41 587.87 69.82 584.31 66.22C580.77 62.62 576.41 60.83 571.27 60.83C566.13 60.83 561.79 62.62 558.23 66.22C554.69 69.82 552.91 74.41 552.91 80C552.91 85.59 554.69 90.18 558.23 93.78Z" />
				<path id="&lt;Compound Path&gt;" class="shp3" d="M604.6 104L604.6 56L612.11 56L635.44 93.34L635.7 93.34L635.44 84.09L635.44 56L641.61 56L641.61 104L635.17 104L610.77 64.85L610.5 64.85L610.77 74.1L610.77 104L604.6 104Z" />
			</g>
			<path id="&lt;Compound Path&gt;" fill-rule="evenodd" class="shp4" d="M579.24 208.04C579.24 227.63 563.9 242.06 545.09 242.06C526.27 242.06 510.93 227.63 510.93 208.04C510.93 188.32 526.27 174.01 545.09 174.01C563.9 174.01 579.24 188.32 579.24 208.04ZM564.29 208.04C564.29 195.79 555.4 187.42 545.09 187.42C534.78 187.42 525.88 195.79 525.88 208.04C525.88 220.15 534.78 228.66 545.09 228.66C555.4 228.66 564.29 220.15 564.29 208.04ZM504.73 208.04C504.73 227.63 489.4 242.06 470.58 242.06C451.76 242.06 436.43 227.63 436.43 208.04C436.43 188.32 451.76 174.01 470.58 174.01C489.4 174.01 504.73 188.32 504.73 208.04ZM489.78 208.04C489.78 195.79 480.89 187.42 470.58 187.42C460.27 187.42 451.38 195.79 451.38 208.04C451.38 220.15 460.27 228.66 470.58 228.66C480.89 228.66 489.78 220.15 489.78 208.04ZM430.54 184.45C431.06 187.03 431.31 190.12 431.31 193.47C431.31 204.3 428.35 217.7 418.81 227.24C409.53 236.91 397.67 242.06 381.95 242.06C352.82 242.06 328.33 218.35 328.33 189.22C328.33 160.09 352.82 136.38 381.95 136.38C398.06 136.38 409.53 142.69 418.17 150.94L407.98 161.12C401.8 155.32 393.42 150.81 381.95 150.81C360.68 150.81 344.06 167.96 344.06 189.22C344.06 210.49 360.68 227.63 381.95 227.63C395.74 227.63 403.6 222.09 408.63 217.06C412.75 212.94 415.46 207.01 416.49 198.89L381.95 198.89L381.95 184.45L430.54 184.45ZM745.96 199.53L700.47 218.35C703.95 225.18 709.36 228.66 716.96 228.66C724.57 228.66 729.85 224.92 733.72 219.25L745.32 226.98C741.58 232.53 732.56 242.06 716.96 242.06C697.63 242.06 683.2 227.11 683.2 208.04C683.2 187.8 697.76 174.01 715.29 174.01C732.95 174.01 741.58 188.06 744.42 195.66L745.96 199.53ZM728.43 194.38C726.76 190.12 721.73 187.16 715.8 187.16C708.2 187.16 697.63 193.86 698.02 207.01L728.43 194.38ZM661.03 139.99L675.98 139.99L675.98 240L661.03 240L661.03 139.99ZM636.54 176.07L650.72 176.07L650.72 237.17C650.72 262.3 635.9 272.61 618.37 272.61C601.87 272.61 591.95 261.52 588.21 252.5L601.23 247.09C603.55 252.63 609.22 259.2 618.37 259.2C629.58 259.2 636.54 252.25 636.54 239.23L636.54 234.33L636.02 234.33C632.67 238.45 626.23 242.06 618.11 242.06C601.1 242.06 585.5 227.24 585.5 208.17C585.5 188.96 601.1 174.01 618.11 174.01C626.23 174.01 632.67 177.62 636.02 181.62L636.54 181.62L636.54 176.07ZM637.57 208.17C637.57 196.18 629.58 187.42 619.4 187.42C609.09 187.42 600.45 196.18 600.45 208.17C600.45 220.02 609.09 228.66 619.4 228.66C629.58 228.66 637.57 220.02 637.57 208.17ZM847.26 171.05C847.26 190.13 830.99 202.11 814.45 202.11L793.6 202.11L793.6 240L778.68 240L778.68 139.99L814.45 139.99C830.99 139.99 847.26 151.97 847.26 171.05ZM832.33 171.05C832.33 163.15 825.99 153.91 814.83 153.91L793.6 153.91L793.6 188.19L814.83 188.19C825.99 188.19 832.33 178.8 832.33 171.05ZM937.45 201.49L937.45 239.83L923.04 239.83L923.04 232.11L922.53 232.11C919.05 237.39 913.52 241.89 903.48 241.89C890.36 241.89 878.65 233.27 878.65 219.89C878.65 205.22 893.19 197.37 907.47 197.37C914.55 197.37 920.34 199.69 923.04 201.23L923.04 200.2C922.91 191.97 915.06 187.34 907.34 187.34C901.81 187.34 896.54 189.14 893.7 194.67L880.45 189.14C885.08 178.59 896.28 173.83 907.09 173.83C924.2 173.83 937.45 183.74 937.45 201.49ZM923.04 212.81C919.05 210.88 915.96 209.47 909.4 209.47C902.07 209.47 893.58 212.43 893.58 220.15C893.58 226.2 900.4 228.64 905.28 228.64C913.91 228.64 921.88 222.08 923.04 212.81ZM1006.54 176.02L965.5 270.33L949.93 270.33L965.11 236.62L938.48 176.02L954.56 176.02L972.32 219.38L972.83 219.38L989.95 176.02L1006.54 176.02ZM855.49 139.99L870.42 139.99L870.42 240L855.49 240L855.49 139.99Z" />
			<g id="&lt;Group&gt;">
				<path id="&lt;Path&gt;" class="shp5" d="M83.48 60.3C81.16 62.77 79.78 66.59 79.78 71.54L79.78 248.47C79.78 253.43 81.16 257.25 83.48 259.71L84.08 260.29L183.19 161.18L183.19 160.01L183.19 158.84L84.08 59.72L83.48 60.3Z" />
				<path id="&lt;Path&gt;" class="shp6" d="M216.22 194.23L183.19 161.18L183.19 160.01L183.19 158.84L216.23 125.8L216.98 126.22L256.12 148.46C267.3 154.81 267.3 165.21 256.12 171.56L216.98 193.8L216.22 194.23Z" />
				<path id="&lt;Path&gt;" class="shp7" d="M216.98 193.8L183.19 160.01L83.48 259.71C87.17 263.61 93.25 264.1 100.11 260.2L216.98 193.8Z" />
				<path id="&lt;Path&gt;" class="shp8" d="M216.98 126.22L100.11 59.81C93.25 55.92 87.17 56.4 83.48 60.3L183.19 160.01L216.98 126.22Z" />
				<g id="&lt;Group&gt;">
					<path id="&lt;Path&gt;" class="shp9" d="M216.23 193.06L100.11 259.03C93.61 262.72 87.8 262.48 84.08 259.12L83.48 259.72L84.08 260.29L84.08 260.29C87.8 263.65 93.61 263.9 100.11 260.2L216.98 193.8L216.23 193.06Z" />
					<path id="&lt;Path&gt;" class="shp10" d="M83.48 258.55C81.16 256.08 79.78 252.26 79.78 247.31L79.78 248.48C79.78 253.43 81.16 257.25 83.48 259.72L84.08 259.12L83.48 258.55Z" />
				</g>
				<path id="&lt;Path&gt;" class="shp10" d="M256.12 170.39L216.23 193.06L216.98 193.8L256.12 171.56C261.71 168.38 264.5 164.2 264.5 160.01C264.03 163.8 261.19 167.51 256.12 170.39Z" />
				<path id="&lt;Path&gt;" class="shp11" d="M100.11 60.99L256.12 149.63C261.19 152.51 264.03 156.22 264.5 160.01C264.51 155.82 261.71 151.63 256.12 148.46L100.11 59.82C88.93 53.46 79.78 58.74 79.78 71.55L79.78 72.72C79.78 59.91 88.93 54.63 100.11 60.99Z" />
			</g>
		</g>
	</g>
</svg>
